<?xml version="1.0" encoding="iso-8859-1"?>
<!-- Generator: Adobe Illustrator 16.0.0, SVG Export Plug-In . SVG Version: 6.00 Build 0)  -->
<!DOCTYPE svg PUBLIC "-//W3C//DTD SVG 1.1//EN" "http://www.w3.org/Graphics/SVG/1.1/DTD/svg11.dtd">
<svg version="1.1" id="Capa_1" xmlns="http://www.w3.org/2000/svg" xmlns:xlink="http://www.w3.org/1999/xlink" x="0px" y="0px"
	 width="22" height="22" viewBox="0 0 92.274 92.273" style="enable-background:new 0 0 92.274 92.273;"
	 xml:space="preserve">
<g>
	<g>
		<path style="fill:#fff;" opacity="0.4" d="M12.879,83.265l18.137-6.483c2.271,0.721,4.869,0.177,6.717-1.671l48.378-50.906c2.555-2.556,2.556-6.714,0-9.27
			L73.092,1.916c-2.534-2.535-6.646-2.554-9.207-0.062L12.523,49.85l-0.102,0.1c-1.803,1.801-2.327,4.396-1.589,6.67L4.476,74.91
			c-0.523,1.512-0.14,3.188,0.991,4.318l3.058,3.06C9.665,83.428,11.362,83.809,12.879,83.265z M68.416,9.038L78.979,19.6
			L32.992,67.991L19.627,54.627L68.416,9.038z M17.126,63.923l6.604,6.604l-10.162,3.632L17.126,63.923z"/>
		<rect style="fill:#fff;" x="5.583" y="85.239" width="50.3" height="7.034" opacity="0.4"/>
		
	</g>
</g>
<g>
</g>
<g>
</g>
<g>
</g>
<g>
</g>
<g>
</g>
<g>
</g>
<g>
</g>
<g>
</g>
<g>
</g>
<g>
</g>
<g>
</g>
<g>
</g>
<g>
</g>
<g>
</g>
<g>
</g>
</svg>
